<svg xmlns="http://www.w3.org/2000/svg" viewBox="0 0 28 28"><path fill-rule="evenodd" fill="#F26522" d="M14 28C6.27 28 0 21.73 0 14 0 6.267 6.27 0 14 0s14 6.268 14 14c0 7.73-6.27 14-14 14zm0-25C7.935 3 3 7.933 3 14c0 6.064 4.935 11 11 11s11-4.936 11-11c0-6.066-4.935-11-11-11zm-.44 16.56c-.292.292-.676.44-1.06.44s-.768-.148-1.06-.44l-4-4c-.31-.31-.445-.717-.428-1.12.014-.364.15-.724.427-1 .277-.28.637-.414 1-.43.404-.016.812.12 1.12.43l2.94 2.938 6.94-6.94c.308-.308.716-.444 1.12-.427.363.015.723.15 1 .43.278.276.414.636.428 1 .017.403-.12.81-.427 1.12l-8 8z"/></svg>