<svg id="Layer_1" xmlns="http://www.w3.org/2000/svg" viewBox="0 0 96 22"><style>.st0{fill:#ec6625}.st1{fill:#fff}</style><path class="st0" d="M2.769 0h90.462C94.76 0 96 1.285 96 2.87v16.261C96 20.715 94.76 22 93.231 22H2.769C1.24 22 0 20.715 0 19.131V2.87C0 1.285 1.24 0 2.769 0z"/><path class="st1" d="M13 19a8 8 0 1 1 0-16 8 8 0 0 1 0 16zm0-14.286a6.292 6.292 0 0 0-6.286 6.285c0 3.466 2.82 6.286 6.286 6.286s6.286-2.82 6.286-6.286A6.292 6.292 0 0 0 13 4.714zm-.251 9.463a.856.856 0 0 1-1.211.001l-.001-.001-2.286-2.286a.844.844 0 0 1-.244-.64.847.847 0 0 1 .244-.572.848.848 0 0 1 .572-.245.848.848 0 0 1 .64.245l1.68 1.679 3.965-3.965a.848.848 0 0 1 .64-.245.848.848 0 0 1 .572.245.848.848 0 0 1 .245.572.848.848 0 0 1-.245.64l-4.571 4.572zM30.447 7.719c-.052.103-.111.175-.179.217s-.148.063-.241.063c-.094 0-.199-.036-.315-.108s-.254-.153-.413-.241a3.236 3.236 0 0 0-.557-.242 2.337 2.337 0 0 0-.752-.108c-.262 0-.489.031-.683.095-.193.063-.357.15-.49.263-.13.108-.233.246-.298.402a1.359 1.359 0 0 0-.098.515c0 .237.066.437.199.595.134.159.31.294.529.406.219.111.469.212.749.301.279.089.565.184.857.283.291.101.577.218.857.351.279.133.529.301.749.504.219.203.396.451.528.745s.199.651.199 1.071c0 .457-.078.886-.234 1.284a2.96 2.96 0 0 1-.686 1.043c-.302.297-.669.53-1.103.7-.435.17-.932.256-1.491.256a4.956 4.956 0 0 1-1.851-.365 4.701 4.701 0 0 1-.805-.42 3.941 3.941 0 0 1-.669-.546l.546-.903a.71.71 0 0 1 .186-.164.444.444 0 0 1 .241-.066c.138.008.27.058.378.143.136.096.296.202.479.319.185.116.401.223.651.318s.55.144.899.144c.537 0 .952-.127 1.246-.382.294-.254.441-.619.441-1.096 0-.266-.066-.482-.2-.65a1.61 1.61 0 0 0-.528-.424 3.936 3.936 0 0 0-.749-.29c-.279-.08-.564-.166-.854-.26a7.207 7.207 0 0 1-.854-.336 2.778 2.778 0 0 1-.749-.511 2.321 2.321 0 0 1-.528-.787c-.133-.315-.199-.704-.199-1.166 0-.368.073-.728.221-1.078.146-.35.361-.66.644-.931s.629-.487 1.039-.651c.411-.163.88-.245 1.407-.245.598 0 1.148.094 1.652.28s.934.448 1.288.784l-.459.888zm8.47-1.841v1.498H34.43v2.807h3.535v1.449H34.43v2.863h4.487V16h-6.384V5.878h6.384zm3.515 8.568h4.053V16h-5.936V5.878h1.883v8.568zM54.17 5.878v1.498h-4.487v2.807h3.535v1.449h-3.535v2.863h4.487V16h-6.384V5.878h6.384zm8.59 7.735c.103 0 .19.039.266.119l.742.805c-.411.509-.916.898-1.516 1.169s-1.319.406-2.159.406c-.752 0-1.428-.129-2.027-.386a4.468 4.468 0 0 1-1.536-1.07 4.707 4.707 0 0 1-.977-1.639 6.148 6.148 0 0 1-.34-2.078c0-.761.126-1.458.378-2.09a4.804 4.804 0 0 1 1.064-1.635 4.806 4.806 0 0 1 1.642-1.067 5.66 5.66 0 0 1 2.11-.382c.751 0 1.408.12 1.971.361.563.24 1.044.559 1.445.955l-.63.875a.54.54 0 0 1-.144.146.403.403 0 0 1-.241.063.55.55 0 0 1-.329-.126 3.521 3.521 0 0 0-1.082-.545c-.263-.084-.599-.126-1.004-.126a3.394 3.394 0 0 0-1.313.248c-.39.16-.742.402-1.029.711a3.271 3.271 0 0 0-.672 1.123 4.33 4.33 0 0 0-.241 1.488c0 .569.08 1.075.241 1.519s.379.816.654 1.12.6.535.973.696c.381.162.79.244 1.204.241.257 0 .489-.014.697-.042.207-.027.398-.072.573-.133.176-.061.341-.139.497-.234s.312-.214.466-.354a.708.708 0 0 1 .146-.102.42.42 0 0 1 .171-.036zm9.561-7.735v1.547h-3.045V16h-1.884V7.425h-3.059V5.878h7.988zm7.58 0v1.498h-4.487v2.807h3.535v1.449h-3.535v2.863h4.487V16h-6.384V5.878h6.384zm10.62 5.061c0 .741-.123 1.423-.371 2.044a4.696 4.696 0 0 1-1.043 1.603 4.637 4.637 0 0 1-1.617 1.043 5.696 5.696 0 0 1-2.094.371h-3.863V5.878h3.863c.766 0 1.463.125 2.093.375a4.7 4.7 0 0 1 1.617 1.043c.448.445.796.979 1.043 1.599.248.621.372 1.302.372 2.044zm-1.925 0c0-.556-.074-1.054-.224-1.495-.149-.44-.362-.814-.638-1.12s-.609-.54-1.004-.703-.839-.245-1.334-.245H83.43v7.126h1.967c.495 0 .939-.082 1.334-.245s.729-.397 1.004-.703.488-.68.638-1.12c.148-.442.223-.94.223-1.495z"/></svg>